<svg xmlns="http://www.w3.org/2000/svg"
     width="5.44444in" height="5.44444in"
     viewBox="0 0 490 490">
  <path id="Imported Path"
        fill="none" stroke="black" stroke-width="1"
        d="M 48.70,377.18
           C 48.70,377.18 48.70,470.18 48.70,470.18
             48.70,470.18 441.30,470.18 441.30,470.18
             441.30,470.18 441.30,377.18 441.30,377.18
             441.30,371.68 445.70,367.27 451.21,367.27
             456.72,367.27 461.12,371.68 461.12,377.18
             461.12,377.18 461.12,480.09 461.12,480.09
             461.12,485.60 456.72,490.00 451.21,490.00
             451.21,490.00 38.79,490.00 38.79,490.00
             33.28,490.00 28.88,485.60 28.88,480.09
             28.88,480.09 28.88,377.18 28.88,377.18
             28.88,371.68 33.28,367.27 38.79,367.27
             44.30,367.27 48.70,371.68 48.70,377.18 Z
           M 254.91,9.91
           C 254.91,9.91 254.91,370.38 254.91,370.38
             254.91,370.38 328.89,296.40 328.89,296.40
             332.79,292.50 339.00,292.50 342.90,296.40
             346.80,300.31 346.80,306.51 342.90,310.42
             342.90,310.42 252.01,401.31 252.01,401.31
             250.11,403.21 247.50,404.21 245.00,404.21
             242.50,404.21 239.89,403.21 237.99,401.31
             237.99,401.31 147.10,310.42 147.10,310.42
             143.20,306.51 143.20,300.31 147.10,296.40
             151.00,292.50 157.21,292.50 161.11,296.40
             161.11,296.40 235.09,370.38 235.09,370.38
             235.09,370.38 235.09,9.91 235.09,9.91
             235.09,4.40 239.49,0.00 245.00,0.00
             250.51,0.00 254.91,4.40 254.91,9.91 Z" />
</svg>
